# AST/ASF file generated using VICON BodyLanguage
# -----------------------------------------------
:version 1.10
:name VICON
:units
  mass 1.0
  length 0.45
  angle deg
:documentation
   .ast/.asf automatically generated from VICON data using
   VICON BodyBuilder and BodyLanguage model FoxedUp or BRILLIANT.MOD
:root
   order TX TY TZ RX RY RZ
   axis XYZ
   position 0 0 0  
   orientation 0 0 0 
:bonedata
  begin
     id 1 
     name lhipjoint
     direction 0.630082 -0.636569 0.44472 
     length 2.82754 
     axis 0 0 0  XYZ
  end
  begin
     id 2 
     name lfemur
     direction 0.34202 -0.939693 0  
     length 7.26371  
     axis 0 0 20  XYZ
    dof rx ry rz
    limits (-160.0 20.0)
           (-70.0 70.0)
           (-60.0 70.0)
  end
  begin
     id 3 
     name ltibia
     direction 0.34202 -0.939693 0   
     length 7.88616   
     axis 0 0 20   XYZ
    dof rx
    limits (-10.0 170.0)
  end
  begin
     id 4 
     name lfoot
     direction 0.0603448 -0.165796 0.984312   
     length 1.77861   
     axis -90 7.62852e-016 20   XYZ
    dof rx rz
    limits (-45.0 90.0)
           (-70.0 20.0)
  end
  begin
     id 5 
     name ltoes
     direction 1.53577e-011 -4.21876e-011 1   
     length 0.902235   
     axis -90 7.62852e-016 20   XYZ
    dof rx
    limits (-90.0 20.0)
  end
  begin
     id 6 
     name rhipjoint
     direction -0.656778 -0.61817 0.431866   
     length 2.9117  
     axis 0 0 0  XYZ 
  end
  begin
     id 7 
     name rfemur
     direction -0.34202 -0.939693 0   
     length 6.81603   
     axis 0 0 -20   XYZ
    dof rx ry rz
    limits (-160.0 20.0)
           (-70.0 70.0)
           (-70.0 60.0)
  end
  begin
     id 8 
     name rtibia
     direction -0.34202 -0.939693 0   
     length 8.05997   
     axis 0 0 -20   XYZ
    dof rx
    limits (-10.0 170.0)
 end
 begin
     id 9 
     name rfoot
     direction -0.0862404 -0.236944 0.967688   
     length 1.84899  
     axis -90 -7.62852e-016 -20   XYZ
    dof rx rz
    limits (-45.0 90.0)
           (-20.0 70.0)
  end
  begin
     id 10 
     name rtoes
     direction -1.53561e-011 -4.21798e-011 1   
     length 0.931579   
     axis -90 -7.62852e-016 -20   XYZ
    dof rx
    limits (-90.0 20.0)
  end
  begin
     id 11 
     name lowerback
     direction -0.0110203 0.991769 -0.127564   
     length 2.05686   
     axis 0 0 0   XYZ
    dof rx ry rz
    limits (-20.0 45.0)
           (-30.0 30.0)
           (-30.0 30.0)
  end
  begin
     id 12 
     name upperback
     direction 0.0109719 0.99993 -0.00432479   
     length 2.06234   
     axis 0 0 0   XYZ
    dof rx ry rz
    limits (-20.0 45.0)
           (-30.0 30.0)
           (-30.0 30.0)
  end
  begin
     id 13 
     name thorax
     direction 0.0173308 0.998351 0.0547306   
     length 2.09856   
     axis 0 0 0   XYZ
    dof rx ry rz
    limits (-20.0 45.0)
           (-30.0 30.0)
           (-30.0 30.0)
  end
  begin
     id 14 
     name lowerneck
     direction -0.0311736 0.989033 0.144366   
     length 1.98151   
     axis 0 0 0   XYZ
    dof rx ry rz
    limits (-20.0 45.0)
           (-30.0 30.0)
           (-30.0 30.0)
  end
  begin
     id 15 
     name upperneck
     direction 0.0421057 0.975772 -0.214698   
     length 2.01457   
     axis 0 0 0   XYZ
    dof rx ry rz
    limits (-20.0 45.0)
           (-30.0 30.0)
           (-30.0 30.0)
  end
  begin
     id 16
     name head
     direction 0.0136911 0.995958 -0.0887718  
     length 2.03562  
     axis 0 0 0   XYZ
    dof rx ry rz
    limits (-20.0 45.0)
           (-30.0 30.0)
           (-30.0 30.0)
  end
  begin
     id 17 
     name lclavicle
     direction 0.915335 0.396201 0.0720134  
     length 4.16217  
     axis 0 0 0   XYZ
    dof ry rz
    limits (-20.0 10.0)
           (0.0 20.0)
  end
  begin
     id 18 
     name lhumerus
     direction 1 -4.48965e-011 6.383e-018   
     length 4.93042   
     axis -180 -30 -90   XYZ
    dof rx ry rz
    limits (-60.0 90.0)
           (-90.0 90.0)
           (-90.0 90.0)
  end
  begin
     id 19
     name lradius
     direction 1 -4.48972e-011 8.8689e-027   
     length 3.68177   
     axis -180 -30 -90   XYZ
    dof rx
    limits (-10.0 170.0)
  end
  begin
     id 20
     name lwrist
     direction 1 -4.48953e-011 1.17971e-026   
     length 1.84089   
     axis -7.69454e-015 90 90   XYZ
    dof ry
    limits (-180.0 0.0)
 end
  begin
     id 21 
     name lhand
     direction 1 -4.49027e-011 2.35802e-026   
     length 0.721479   
     axis -1.50533e-014 90 90   XYZ
    dof rx rz
    limits (-90.0 90.0)
           (-45.0 45.0)
  end
  begin
     id 22 
     name lfingers
     direction 1 -4.48915e-011 4.72027e-026   
     length 0.581675   
     axis -3.01059e-014 90 90   XYZ
    dof rx
    limits (0.0 90.0)
  end
  begin
     id 23
     name lthumb
     direction 0.707107 -6.34948e-011 0.707107   
     length 0.835172   
     axis -90 45 -5.12164e-014   XYZ
    dof rx rz
    limits (-45.0 45.0)
           (-45.0 45.0)
  end
  begin
     id 24 
     name rclavicle
     direction -0.882781 0.469197 0.0234974   
     length 3.95647  
     axis 0 0 0   XYZ 
    dof ry rz
    limits (-10.0 20.0)
           (-20.0 0.0)
  end
  begin
     id 25 
     name rhumerus
     direction -1 -4.48965e-011 -1.54906e-018  
     length 5.07905   
     axis -180 30 90   XYZ
    dof rx ry rz
    limits (-90.0 60.0)
           (-90.0 90.0)
           (-90.0 90.0)
  end
  begin
     id 26 
     name rradius
     direction -1 -4.48972e-011 5.47489e-027   
     length 3.54394   
     axis -180 30 90   XYZ
    dof rx
    limits (-10.0 170.0)
  end
  begin
     id 27 
     name rwrist
     direction -1 -4.48955e-011 1.17969e-026   
     length 1.77197   
     axis -7.69454e-015 -90 -90   XYZ
    dof ry
    limits (-180.0 0.0)
  end
  begin
     id 28
     name rhand
     direction -1 -4.48982e-011 2.35888e-026   
     length 0.681156   
     axis -1.50533e-014 -90 -90   XYZ
    dof rx rz
    limits (-90.0 90.0)
           (-45.0 45.0)
  end
  begin
     id 29
     name rfingers
     direction -1 -4.48955e-011 4.71877e-026   
     length 0.549165   
     axis -3.01059e-014 -90 -90   XYZ
    dof rx
    limits (0.0 90.0)
  end
  begin
     id 30
     name rthumb
     direction -0.707107 -6.3491e-011 0.707107   
     length 0.788495   
     axis -90 -45 5.12164e-014   XYZ
    dof rx rz
    limits (-45.0 45.0)
           (-45.0 45.0)
  end
:hierarchy
  begin
    root lhipjoint rhipjoint lowerback
    lhipjoint lfemur
    lfemur ltibia
    ltibia lfoot
    lfoot ltoes
    rhipjoint rfemur
    rfemur rtibia
    rtibia rfoot
    rfoot rtoes
    lowerback upperback
    upperback thorax
    thorax lowerneck lclavicle rclavicle
    lowerneck upperneck
    upperneck head
    lclavicle lhumerus
    lhumerus lradius
    lradius lwrist
    lwrist lhand lthumb
    lhand lfingers
    rclavicle rhumerus
    rhumerus rradius
    rradius rwrist
    rwrist rhand rthumb
    rhand rfingers
  end

#!OML:ASF H:\Bending\Project 1\Capture day 1\Session 1\Subject.ASF
:FULLY-SPECIFIED
:DEGREES
112
root -12.1899 17.8425 -16.0027 -169.349 79.9363 -201.621
lowerback 48.513 -4.57789 3.8647
upperback 10.1111 -1.62864 -0.144557
thorax -9.07746 0.0126509 -1.39253
lowerneck -13.1715 -4.29944 -9.38106
upperneck 8.68328 -5.09719 8.62035
head 5.22917 -2.25347 3.79864
rclavicle 5.20816e-014 6.11263e-014
rhumerus 28.9212 9.2393 -78.4909
rradius 43.3087
rwrist -5.87928
rhand -31.8879 -23.3754
rfingers 7.12502
rthumb -5.14051 -53.2931
lclavicle 5.20816e-014 6.11263e-014
lhumerus 37.8228 -24.2754 72.589
lradius 43.7088
lwrist 32.5659
lhand -33.8289 22.348
lfingers 7.12502
lthumb -7.01438 52.2118
rfemur -56.0861 -16.4568 20.5961
rtibia 40.4942
rfoot -14.4732 -9.81723
rtoes 0.624182
lfemur -56.3324 -5.86794 -9.85025
ltibia 35.6868
lfoot -10.1565 -1.64136
ltoes 17.2365
113
root -12.1926 17.8556 -16.0052 -168.49 79.9753 -200.086
lowerback 46.9636 -4.33296 3.79922
upperback 10.9798 -1.48677 0.039389
thorax -9.11005 0.0537691 -1.332
lowerneck -13.4144 -4.36791 -9.3879
upperneck 9.17056 -5.20347 8.71422
head 5.43395 -2.2918 3.81816
rclavicle 7.43455e-014 4.24405e-014
rhumerus 27.1934 9.7296 -78.3095
rradius 44.1501
rwrist -5.67616
rhand -32.0682 -24.0304
rfingers 7.12502
rthumb -5.31457 -53.9438
lclavicle 7.43455e-014 4.24405e-014
lhumerus 36.1438 -25.2629 72.9035
lradius 44.3959
lwrist 32.2676
lhand -34.9927 22.4313
lfingers 7.12502
lthumb -8.13774 52.2546
rfemur -54.9521 -16.3499 20.656
rtibia 39.9094
rfoot -14.413 -9.84994
rtoes 0.812466
lfemur -55.4451 -5.75072 -9.7691
ltibia 35.4558
lfoot -10.1673 -1.80836
ltoes 17.8505
114
root -12.1936 17.8696 -16.011 -167.713 80.0252 -198.606
lowerback 46.3535 -4.11735 3.77684
upperback 10.8441 -1.30537 0.180578
thorax -9.10376 0.112628 -1.25483
lowerneck -13.6374 -4.4357 -9.35065
upperneck 9.5226 -5.31061 8.7878
head 5.59229 -2.33072 3.82372
rclavicle -3.18055e-015 6.26172e-015
rhumerus 25.4676 10.1552 -78.1521
rradius 44.9065
rwrist -5.29014
rhand -31.9742 -24.6153
rfingers 7.12502
rthumb -5.22382 -54.5309
lclavicle -3.18055e-015 6.26172e-015
lhumerus 34.4629 -26.3657 73.2426
lradius 45.07
lwrist 32.3027
lhand -36.0164 22.5149
lfingers 7.12502
lthumb -9.12559 52.2975
rfemur -53.7738 -16.2464 20.6848
rtibia 39.3017
rfoot -14.3712 -9.8585
rtoes 1.32723
lfemur -54.53 -5.60323 -9.73714
ltibia 35.2429
lfoot -10.1641 -1.99581
ltoes 18.3992
115
root -12.1926 17.884 -16.0201 -167.052 80.0739 -197.211
lowerback 45.7538 -3.90368 3.77511
upperback 10.6931 -1.11631 0.319173
thorax -9.11384 0.174843 -1.1934
lowerneck -13.8385 -4.49997 -9.2907
upperneck 9.76045 -5.41329 8.85232
head 5.71037 -2.3678 3.82289
rclavicle -2.8625e-014 4.87022e-015
rhumerus 23.7705 10.5149 -78.084
rradius 45.5157
rwrist -4.69496
rhand -31.7003 -25.0361
rfingers 7.12502
rthumb -4.95936 -54.958
lclavicle -2.8625e-014 4.87022e-015
lhumerus 32.783 -27.5745 73.5658
lradius 45.7342
lwrist 32.5507
lhand -36.8572 22.6088
lfingers 7.12502
lthumb -9.93684 52.3542
rfemur -52.5416 -16.1729 20.6836
rtibia 38.6692
rfoot -14.3417 -9.8443
rtoes 1.93216
lfemur -53.5731 -5.43456 -9.76338
ltibia 35.034
lfoot -10.1497 -2.20009
ltoes 18.668
116
root -12.1889 17.8985 -16.032 -166.525 80.1116 -195.92
lowerback 45.1549 -3.71788 3.79604
upperback 10.5286 -0.952369 0.439185
thorax -9.13731 0.226177 -1.15174
lowerneck -14.0289 -4.55292 -9.22927
upperneck 9.92492 -5.49924 8.9193
head 5.80235 -2.39679 3.82406
rclavicle -4.09496e-014 -2.98177e-016
rhumerus 22.1054 10.8752 -78.1226
rradius 45.9778
rwrist -3.98654
rhand -31.403 -25.3016
rfingers 7.12502
rthumb -4.67231 -55.2301
lclavicle -4.09496e-014 -2.98177e-016
lhumerus 31.0887 -28.8443 73.8452
lradius 46.3987
lwrist 32.8712
lhand -37.5264 22.7152
lfingers 7.12502
lthumb -10.5825 52.4287
rfemur -51.3139 -16.1338 20.651
rtibia 38.1452
rfoot -14.3821 -9.83148
rtoes 2.33501
lfemur -52.6363 -5.26883 -9.83481
ltibia 34.9642
lfoot -10.2137 -2.43148
ltoes 18.4927
117
root -12.1821 17.9126 -16.0455 -166.125 80.1369 -194.73
lowerback 44.5387 -3.56951 3.82365
upperback 10.3533 -0.83467 0.534409
thorax -9.16653 0.257052 -1.11959
lowerneck -14.221 -4.58851 -9.17945
upperneck 10.0559 -5.55966 8.99703
head 5.88251 -2.41286 3.83306
rclavicle 5.76476e-014 3.04141e-014
rhumerus 20.4825 11.3408 -78.2434
rradius 46.3187
rwrist -3.32869
rhand -31.2512 -25.526
rfingers 7.12502
rthumb -4.52573 -55.4576
lclavicle 5.76476e-014 3.04141e-014
lhumerus 29.352 -30.1132 74.0899
lradius 47.0792
lwrist 33.1482
lhand -38.0765 22.8383
lfingers 7.12502
lthumb -11.113 52.5241
rfemur -50.0225 -16.1005 20.5795
rtibia 37.593
rfoot -14.4089 -9.85682
rtoes 2.33775
lfemur -51.646 -5.13201 -9.92364
ltibia 34.8719
lfoot -10.3075 -2.62702
ltoes 17.8178
118
root -12.1708 17.8935 -16.0606 -165.814 80.1581 -193.611
lowerback 43.8856 -3.44866 3.83097
upperback 10.1701 -0.764501 0.60995
thorax -9.19228 0.266437 -1.07761
lowerneck -14.4214 -4.60645 -9.14394
upperneck 10.1778 -5.59463 9.08886
head 5.95974 -2.41565 3.85153
rclavicle 2.8625e-014 3.83654e-014
rhumerus 18.9212 12.0249 -78.3879
rradius 46.5767
rwrist -2.87985
rhand -31.3656 -25.8775
rfingers 7.12502
rthumb -4.63613 -55.8068
lclavicle 2.8625e-014 3.83654e-014
lhumerus 27.5377 -31.3151 74.3518
lradius 47.7936
lwrist 33.3212
lhand -38.5668 22.9905
lfingers 7.12502
lthumb -11.5859 52.6503
rfemur -48.756 -16.0339 20.4487
rtibia 37.1023
rfoot -14.4155 -9.94867
rtoes 1.92315
lfemur -50.6883 -5.0253 -9.99017
ltibia 34.8294
lfoot -10.4396 -2.77239
ltoes 16.7297
119
root -12.1577 17.9074 -16.0744 -165.536 80.19 -192.518
lowerback 43.186 -3.34342 3.79666
upperback 9.97872 -0.736978 0.672286
thorax -9.21071 0.256012 -1.01036
lowerneck -14.6365 -4.6068 -9.12406
upperneck 10.299 -5.60433 9.19838
head 6.03798 -2.40482 3.88093
rclavicle 2.70347e-014 3.51849e-014
rhumerus 17.382 13.0431 -78.4715
rradius 46.8631
rwrist -2.74015
rhand -31.7742 -26.4989
rfingers 7.12502
rthumb -5.03067 -56.4192
lclavicle 2.70347e-014 3.51849e-014
lhumerus 25.6028 -32.3753 74.7071
lradius 48.5595
lwrist 33.3898
lhand -39.0298 23.1932
lfingers 7.12502
lthumb -12.0324 52.8273
rfemur -47.34 -15.8595 20.2815
rtibia 36.4778
rfoot -14.3944 -10.1452
rtoes 1.23967
lfemur -49.5994 -4.96791 -10.036
ltibia 34.6726
lfoot -10.6214 -2.85207
ltoes 15.4495
120
root -12.1417 17.9215 -16.0881 -165.242 80.2462 -191.408
lowerback 42.4391 -3.23771 3.71526
upperback 9.77551 -0.733838 0.730966
thorax -9.22389 0.233403 -0.912696
lowerneck -14.8693 -4.59641 -9.11599
upperneck 10.4138 -5.5976 9.3214
head 6.11648 -2.38479 3.9184
rclavicle 1.51076e-014 5.04913e-014
rhumerus 15.8355 14.4447 -78.4302
rradius 47.2573
rwrist -2.87192
rhand -32.4064 -27.4349
rfingers 7.12502
rthumb -5.6411 -57.3398
lclavicle 1.51076e-014 5.04913e-014
lhumerus 23.5152 -33.2466 75.2403
lradius 49.392
lwrist 33.3895
lhand -39.4529 23.4678
lfingers 7.12502
lthumb -12.4403 53.0776
rfemur -45.8846 -15.5762 20.079
rtibia 35.8175
rfoot -14.3487 -10.4189
rtoes 0.505363
lfemur -48.4757 -4.92432 -10.0507
ltibia 34.486
lfoot -10.8286 -2.89487
ltoes 14.2751
121
root -12.1232 17.936 -16.1027 -164.912 80.3332 -190.272
lowerback 41.652 -3.12343 3.6018
upperback 9.5523 -0.737586 0.791216
thorax -9.2412 0.205921 -0.794034
lowerneck -15.13 -4.58341 -9.11854
upperneck 10.5173 -5.58333 9.44903
head 6.19591 -2.3603 3.95983
rclavicle -2.90226e-014 -1.92821e-014
rhumerus 14.2427 16.2062 -78.2362
rradius 47.8162
rwrist -3.12354
rhand -33.122 -28.6092
rfingers 7.12502
rthumb -6.332 -58.4945
lclavicle -2.90226e-014 -1.92821e-014
lhumerus 21.2602 -33.9131 76.0125
lradius 50.305
lwrist 33.3525
lhand -39.792 23.8291
lfingers 7.12502
lthumb -12.7672 53.4187
rfemur -44.345 -15.217 19.8637
rtibia 34.9788
rfoot -14.2045 -10.7182
rtoes -0.109071
lfemur -47.2609 -4.86461 -10.0531
ltibia 34.1232
lfoot -10.9598 -2.90705
ltoes 13.4869
122
root -12.1024 17.951 -16.1193 -164.592 80.4487 -189.167
lowerback 40.831 -2.99935 3.48143
upperback 9.29868 -0.735864 0.853549
thorax -9.27479 0.178615 -0.671752
lowerneck -15.4416 -4.57527 -9.13529
upperneck 10.619 -5.56762 9.56808
head 6.28337 -2.33483 4.00069
rclavicle -1.35174e-014 -3.97569e-016
rhumerus 12.5611 18.2352 -77.9054
rradius 48.563
rwrist -3.2962
rhand -33.7676 -29.8534
rfingers 7.12502
rthumb -6.95519 -59.7191
lclavicle -1.35174e-014 -3.97569e-016
lhumerus 18.8456 -34.3963 77.0424
lradius 51.3115
lwrist 33.2752
lhand -40.0047 24.2835
lfingers 7.12502
lthumb -12.9723 53.8602
rfemur -42.8284 -14.8495 19.655
rtibia 34.1217
rfoot -14.0421 -10.9848
rtoes -0.555415
lfemur -46.0467 -4.76397 -10.0761
ltibia 33.7416
lfoot -11.0625 -2.95617
ltoes 13.2589
123
root -12.0791 17.9666 -16.1385 -164.38 80.5863 -188.208
lowerback 39.9747 -2.86593 3.37408
upperback 9.00515 -0.721755 0.915357
thorax -9.33378 0.15421 -0.561601
lowerneck -15.8386 -4.57713 -9.17482
upperneck 10.7492 -5.5524 9.6645
head 6.39426 -2.30971 4.03747
rclavicle 2.22639e-014 2.40529e-014
rhumerus 10.7561 20.3971 -77.4913
rradius 49.4821
rwrist -3.23346
rhand -34.2355 -30.9734
rfingers 7.12502
rthumb -7.40689 -60.8237
lclavicle 2.22639e-014 2.40529e-014
lhumerus 16.2989 -34.7497 78.3045
lradius 52.4222
lwrist 33.1113
lhand -40.0811 24.8313
lfingers 7.12502
lthumb -13.046 54.4034
rfemur -41.371 -14.5439 19.4576
rtibia 33.2668
rfoot -13.8664 -11.1715
rtoes -0.89924
lfemur -44.8533 -4.61164 -10.1538
ltibia 33.3435
lfoot -11.1197 -3.06249
ltoes 13.6114
124
root -12.0529 17.9826 -16.1604 -164.413 80.743 -187.547
lowerback 39.0702 -2.71888 3.28053
upperback 8.66638 -0.691008 0.973606
thorax -9.41878 0.134501 -0.468894
lowerneck -16.357 -4.59135 -9.24711
upperneck 10.9554 -5.53637 9.72687
head 6.54963 -2.28446 4.06832
rclavicle 0 -1.11319e-014
rhumerus 8.80943 22.5533 -77.068
rradius 50.5291
rwrist -2.89482
rhand -34.5017 -31.8324
rfingers 7.12502
rthumb -7.66386 -61.6736
lclavicle 0 -1.11319e-014
lhumerus 13.6578 -35.0429 79.741
lradius 53.6431
lwrist 32.7971
lhand -40.054 25.4631
lfingers 7.12502
lthumb -13.0199 55.0368
rfemur -40.0002 -14.336 19.2565
rtibia 32.434
rfoot -13.6831 -11.2631
rtoes -1.24376
lfemur -43.6952 -4.41474 -10.3098
ltibia 32.9259
lfoot -11.128 -3.22085
ltoes 14.4212
125
root -12.0232 17.9988 -16.1842 -164.808 80.9228 -187.312
lowerback 38.0984 -2.54733 3.18142
upperback 8.28307 -0.63832 1.02729
thorax -9.52086 0.122286 -0.386657
lowerneck -17.0212 -4.61847 -9.35596
upperneck 11.2907 -5.51812 9.74613
head 6.77056 -2.25859 4.09148
rclavicle 1.47101e-014 -1.09332e-014
rhumerus 6.71543 24.5944 -76.7096
rradius 51.6567
rwrist -2.37319
rhand -34.6201 -32.4123
rfingers 7.12502
rthumb -7.7781 -62.2492
lclavicle 1.47101e-014 -1.09332e-014
lhumerus 10.9593 -35.3382 81.2826
lradius 54.9727
lwrist 32.2938
lhand -39.9814 26.1497
lfingers 7.12502
lthumb -12.9499 55.7279
rfemur -38.7241 -14.2083 19.0235
rtibia 31.634
rfoot -13.5006 -11.2814
rtoes -1.63779
lfemur -42.574 -4.19674 -10.5466
ltibia 32.4803
lfoot -11.0992 -3.4012
ltoes 15.4762
